<?xml version="1.0" encoding="UTF-8"?>
<svg width="600px" height="150px" viewBox="0 0 600 150" version="1.1" xmlns="http://www.w3.org/2000/svg" xmlns:xlink="http://www.w3.org/1999/xlink">
    <!-- Generator: Sketch 52.5 (67469) - http://www.bohemiancoding.com/sketch -->
    <title>Disha +-</title>
    <desc>Created with Sketch.</desc>
    <defs>
        <linearGradient x1="87.8138511%" y1="12.5687996%" x2="0%" y2="100%" id="linearGradient-1">
            <stop stop-color="#FFB800" offset="0%"></stop>
            <stop stop-color="#FF3900" offset="100%"></stop>
        </linearGradient>
    </defs>
    <g id="Featured-Demos" stroke="none" stroke-width="1" fill="none" fill-rule="evenodd">
        <g id="Desktop-HD" transform="translate(-413.000000, -693.000000)">
            <g id="Disha-+-" transform="translate(413.000000, 693.000000)">
                <path d="M541.5,110.230476 C541.5,112.97844 542.564304,115.293381 544.696557,117.175298 C546.826987,119.059042 549.569756,120 552.915753,120 C558.295591,120 562.862621,118.167415 566.616843,114.504072 C570.369244,110.842556 572.25,105.958707 572.25,99.8543537 L572.25,93.75 C566.361702,95.1751409 561.692615,96.1416788 558.244562,96.6477866 C547.080306,98.2793903 541.5,102.806953 541.5,110.230476 M520.5,112.650197 C520.5,104.360452 523.686031,97.4850113 530.058092,92.0275052 C536.428336,86.5681835 545.782987,82.9280306 558.125677,81.1088619 C568.239598,79.4912179 574.104874,78.4309439 575.725135,77.9244089 L575.725135,73.2221664 C575.725135,69.4839745 574.433649,66.7279884 571.856124,64.9560236 C569.276784,63.1913211 565.912742,62.3035232 561.765817,62.3035232 C552.256769,62.3035232 544.064638,66.0453462 537.187607,73.5253612 L522.924943,61.2432492 C532.839057,49.413206 545.6849,43.5 561.464288,43.5 C575.419974,43.5 585.334087,46.8369582 591.199363,53.5090589 C597.064638,60.1829752 600,69.6364796 600,81.8659411 L600,140.25 L576.48259,140.25 L576.48259,128.116762 C574.66252,131.557206 571.62907,134.436649 567.380424,136.760537 C563.131777,139.084425 558.278258,140.25 552.814415,140.25 C542.902118,140.25 535.038762,137.697354 529.220714,132.590247 C523.402666,127.488586 520.5,120.840087 520.5,112.650197 Z M429.979841,140.249094 L429.979841,9.75 L453.889226,9.75 L453.889226,55.0168731 L454.34397,55.0168731 C459.791839,49.2640381 466.752501,46.3858081 475.227768,46.3858081 C479.161031,46.3858081 482.871452,46.9929914 486.349971,48.203733 C489.82849,49.4144746 493.104096,51.3067114 496.184035,53.8804435 C499.263974,56.4559882 501.707996,60.1407751 503.523348,64.9311793 C505.3387,69.727021 506.25,75.3547944 506.25,81.8126871 L506.25,140.249094 L482.032621,140.249094 L482.032621,84.5368556 C482.032621,72.8299994 478.302272,66.9756651 470.837949,66.9756651 C465.893741,66.9756651 461.833657,69.1705874 458.657696,73.5604319 C455.479924,77.9520889 453.889226,83.124928 453.889226,89.0807616 L453.889226,140.249094 L429.979841,140.249094 Z M338.753005,117.844393 L355.701728,107.850337 C361.854359,116.532152 369.572324,120.871247 378.855622,120.871247 C382.687428,120.871247 385.687651,120.037503 387.858102,118.373639 C390.028553,116.707963 391.111967,114.663478 391.111967,112.240182 C391.111967,111.435438 390.985146,110.630693 390.733316,109.818699 C390.481486,109.012142 390.07747,108.28171 389.523081,107.623777 C388.968692,106.969469 388.387127,106.391285 387.78201,105.881976 C387.178704,105.379917 386.345309,104.848858 385.285447,104.292425 C384.227398,103.741429 383.292546,103.286494 382.488138,102.929434 C381.678295,102.577812 380.594881,102.151877 379.234273,101.644381 C377.870041,101.140509 376.737711,100.761699 375.828223,100.509763 C374.920547,100.257828 373.657772,99.8790179 372.045333,99.3751464 C370.429271,98.8676499 369.219036,98.4670902 368.414629,98.1625923 C360.745581,95.6396098 354.616502,92.3590076 350.027393,88.3225981 C345.434661,84.2861886 343.141012,78.3829171 343.141012,70.6091586 C343.141012,62.3351536 346.697436,55.7721367 353.810283,50.9273578 C360.92313,46.0843914 369.322305,43.6610958 379.005995,43.6610958 C386.573587,43.6610958 393.809631,45.6548319 400.723188,49.6423042 C407.63131,53.6297765 412.801984,58.8515528 416.233399,65.3112579 L400.342725,74.6963177 C393.885724,66.9243717 386.876145,63.0402112 379.308554,63.0402112 C375.67785,63.0402112 372.826188,63.7978309 370.759006,65.3112579 C368.690012,66.8246849 367.657326,68.7422966 367.657326,71.0622805 C367.657326,72.1751477 367.856616,73.2082656 368.262444,74.1670714 C368.664647,75.1276897 369.345857,76.0103711 370.306074,76.8151155 C371.262666,77.6271099 372.170343,78.330355 373.029102,78.9357258 C373.88605,79.5410966 375.147013,80.1464674 376.811992,80.7518382 C378.476971,81.357209 379.78685,81.8393306 380.747067,82.1909532 C381.705471,82.5443882 383.243629,83.0500722 385.36154,83.7043802 C387.481263,84.3623131 388.994056,84.8408098 389.901732,85.1416827 C407.252659,90.996017 415.93084,100.130954 415.93084,112.54468 C415.93084,120.216939 412.801984,126.750956 406.547896,132.150356 C400.290185,137.547944 391.313069,140.24855 379.611113,140.24855 C370.429271,140.24855 362.231198,138.204064 355.020518,134.118718 C347.806214,130.029746 342.38371,124.604971 338.753005,117.844393 Z M300.070948,140.249094 L300.070948,46.3858081 L323.980333,46.3858081 L323.980333,140.249094 L300.070948,140.249094 Z M299.766578,34.8855754 L299.766578,10.0563104 L324.130706,10.0563104 L324.130706,34.8855754 L299.766578,34.8855754 Z M219.818873,91.8040239 C219.818873,100.786712 221.407759,107.675976 224.583719,112.468193 C227.761492,117.264035 232.075218,119.660143 237.523086,119.660143 C242.869498,119.660143 247.079956,117.18791 250.159895,112.23982 C253.234399,107.298979 254.774368,100.485839 254.774368,91.8040239 C254.774368,83.5300189 253.310491,76.8691276 250.386361,71.8213502 C247.458607,66.7735728 243.172057,64.2505903 237.523086,64.2505903 C231.671202,64.2505903 227.256019,66.7481979 224.281161,71.7452257 C221.30449,76.7386286 219.818873,83.4285196 219.818873,91.8040239 Z M195,91.8040239 C195,76.7676283 198.656069,64.9846477 205.97183,56.4550819 C213.285779,47.9273286 222.692275,43.6607333 234.194941,43.6607333 C242.668396,43.6607333 249.478685,46.790899 254.622183,53.0476056 L254.622183,9.75090624 L278.683753,9.75090624 L278.683753,140.25 L255.229112,140.25 L255.229112,128.439832 C253.411948,131.569998 250.538546,134.321354 246.601659,136.692087 C242.668396,139.061008 238.479679,140.25 234.042755,140.25 C229.200004,140.25 224.532991,139.341944 220.045339,137.524019 C215.554063,135.707907 211.392522,132.983738 207.560716,129.349701 C203.725286,125.715663 200.674335,120.669698 198.40605,114.209993 C196.135954,107.752101 195,100.28284 195,91.8040239 Z" id="Fill-10" fill="#FFFFFF"></path>
                <path d="M0,0 L0,75 L0,105.19375 L4.51458333,100.679167 L75,30.2041667 L75,75.3 L22.1145833,128.172917 L0.285416667,150 L75,150 C116.420833,150 150,116.420833 150,75 C150,33.5791667 116.420833,0 75,0 L0,0 Z" id="Fill-1" fill="url(#linearGradient-1)"></path>
            </g>
        </g>
    </g>
</svg>