<?xml version="1.0" encoding="UTF-8"?>
<svg width="264px" height="303px" viewBox="0 0 264 303" version="1.1" xmlns="http://www.w3.org/2000/svg" xmlns:xlink="http://www.w3.org/1999/xlink">
    <!-- Generator: Sketch 55.2 (78181) - https://sketchapp.com -->
    <title>Group 5</title>
    <desc>Created with Sketch.</desc>
    <defs>
        <rect id="path-1" x="0" y="0" width="214" height="253" rx="30"></rect>
        <filter x="-19.9%" y="-12.8%" width="139.7%" height="133.6%" filterUnits="objectBoundingBox" id="filter-2">
            <feOffset dx="0" dy="10" in="SourceAlpha" result="shadowOffsetOuter1"></feOffset>
            <feGaussianBlur stdDeviation="12.5" in="shadowOffsetOuter1" result="shadowBlurOuter1"></feGaussianBlur>
            <feComposite in="shadowBlurOuter1" in2="SourceAlpha" operator="out" result="shadowBlurOuter1"></feComposite>
            <feColorMatrix values="0 0 0 0 0   0 0 0 0 0   0 0 0 0 0  0 0 0 0.1 0" type="matrix" in="shadowBlurOuter1"></feColorMatrix>
        </filter>
    </defs>
    <g id="Disha-Website" stroke="none" stroke-width="1" fill="none" fill-rule="evenodd">
        <g id="Artboard-Copy-3" transform="translate(-142.000000, -916.000000)">
            <g id="Group-5" transform="translate(167.000000, 931.000000)">
                <g id="Rectangle">
                    <use fill="black" fill-opacity="1" filter="url(#filter-2)" xlink:href="#path-1"></use>
                    <rect stroke-linejoin="square" fill="#FFFFFF" fill-rule="evenodd" x="0" y="0" width="214" height="253" rx="30"></rect>
                </g>
                <g id="Group-4" transform="translate(152.000000, 28.000000)" stroke="#000000" stroke-width="2">
                    <g id="Orion_color-dropper">
                        <path d="M17.4255319,7.46808511 L31.3659574,21.4085106" id="Path" stroke-linecap="square" stroke-linejoin="round"></path>
                        <path d="M23.0680851,7.38510638 L5.80851064,24.6446809 C4.12950987,26.3154789 3.57841028,28.8116358 4.39787234,31.0340426 L1.16170213,34.2702128 C0.687300888,34.7541988 0.687300888,35.5287799 1.16170213,36.012766 L3.07021277,37.9212766 C3.55419884,38.3956778 4.32877989,38.3956778 4.81276596,37.9212766 L8.04893617,34.6851064 C10.2630491,35.4481737 12.7186648,34.8665805 14.3553191,33.1914894 L31.6148936,15.9319149" id="Path" stroke-linecap="square"></path>
                        <path d="M31.6148936,15.9319149 L37.2574468,10.2893617 C39.3523638,7.88893595 39.2297348,4.27597735 36.9768787,2.02312126 C34.7240226,-0.229734825 31.1110641,-0.352363829 28.7106383,1.74255319 L23.0680851,7.38510638" id="Path" stroke-linecap="round" stroke-linejoin="round"></path>
                    </g>
                </g>
                <path d="M55.3955078,216.524414 L57.0947266,215.953125 C57.3681654,216.441409 57.7636693,216.839354 58.28125,217.146973 C58.7988307,217.454591 59.3701141,217.608398 59.9951172,217.608398 C60.6396517,217.608398 61.1572246,217.45215 61.5478516,217.139648 C61.9384785,216.827147 62.1337891,216.421877 62.1337891,215.923828 C62.1337891,215.396482 61.9262716,214.98633 61.5112305,214.693359 C61.0961893,214.400389 60.4882853,214.117189 59.6875,213.84375 C58.5449162,213.462889 57.7734395,213.160157 57.3730469,212.935547 C56.3281198,212.339841 55.8056641,211.475592 55.8056641,210.342773 C55.8056641,209.385737 56.1816369,208.614261 56.9335938,208.02832 C57.6855506,207.44238 58.6669861,207.149414 59.8779297,207.149414 C60.8740284,207.149414 61.7260707,207.381345 62.434082,207.845215 C63.1420934,208.309084 63.657225,208.90234 63.9794922,209.625 L62.3535156,210.166992 C61.7285125,209.258785 60.8984427,208.804688 59.8632812,208.804688 C59.2285125,208.804688 58.7255878,208.946288 58.3544922,209.229492 C57.9833966,209.512697 57.7978516,209.883787 57.7978516,210.342773 C57.7978516,210.479493 57.8124999,210.608886 57.8417969,210.730957 C57.8710939,210.853028 57.9296871,210.967773 58.0175781,211.075195 C58.1054692,211.182618 58.1835934,211.27539 58.2519531,211.353516 C58.3203128,211.431641 58.4326164,211.514648 58.5888672,211.602539 C58.745118,211.69043 58.8696284,211.758789 58.9624023,211.807617 C59.0551762,211.856446 59.2089833,211.919921 59.4238281,211.998047 C59.6386729,212.076172 59.79248,212.129883 59.8852539,212.15918 C59.9780278,212.188477 60.1513659,212.244628 60.4052734,212.327637 C60.659181,212.410645 60.8300777,212.466797 60.9179688,212.496094 C61.3671897,212.642579 61.7626936,212.798827 62.1044922,212.964844 C62.4462908,213.13086 62.7807601,213.34326 63.1079102,213.602051 C63.4350602,213.860841 63.6865226,214.180662 63.8623047,214.561523 C64.0380868,214.942385 64.1259766,215.372068 64.1259766,215.850586 C64.1259766,216.934576 63.7377969,217.774411 62.9614258,218.370117 C62.1850547,218.965823 61.1816468,219.263672 59.9511719,219.263672 C58.8867134,219.263672 57.9541056,219.017092 57.1533203,218.523926 C56.3525351,218.030759 55.7666034,217.364262 55.3955078,216.524414 Z M65.1074219,214.737305 C65.1074219,213.379876 65.4809533,212.298344 66.2280273,211.492676 C66.9751014,210.687008 67.9150334,210.28418 69.0478516,210.28418 C70.1611384,210.28418 71.0790979,210.689449 71.8017578,211.5 C72.5244177,212.310551 72.8857422,213.365228 72.8857422,214.664062 C72.8857422,214.91797 72.8710939,215.166991 72.8417969,215.411133 L66.9824219,215.411133 C66.9824219,216.055667 67.175291,216.609861 67.5610352,217.07373 C67.9467793,217.5376 68.4765591,217.769531 69.1503906,217.769531 C69.619143,217.769531 70.0317365,217.654786 70.3881836,217.425293 C70.7446307,217.1958 71.0156241,216.900392 71.2011719,216.539062 L72.7539062,217.066406 C72.4804674,217.691409 72.0361359,218.213865 71.4208984,218.633789 C70.805661,219.053713 70.0390671,219.263672 69.1210938,219.263672 C67.9394472,219.263672 66.9751014,218.85352 66.2280273,218.033203 C65.4809533,217.212887 65.1074219,216.114265 65.1074219,214.737305 Z M67.0117188,214.107422 L70.9960938,214.107422 C70.9960938,213.462887 70.825197,212.913576 70.4833984,212.459473 C70.1415999,212.005369 69.663089,211.77832 69.0478516,211.77832 C68.4326141,211.77832 67.9418964,212.010252 67.5756836,212.474121 C67.2094708,212.937991 67.0214844,213.482419 67.0117188,214.107422 Z M74.5556641,219 L74.5556641,207.032227 L76.4013672,207.032227 L76.4013672,219 L74.5556641,219 Z M78.0859375,214.737305 C78.0859375,213.379876 78.4594689,212.298344 79.206543,211.492676 C79.953617,210.687008 80.893549,210.28418 82.0263672,210.28418 C83.139654,210.28418 84.0576136,210.689449 84.7802734,211.5 C85.5029333,212.310551 85.8642578,213.365228 85.8642578,214.664062 C85.8642578,214.91797 85.8496095,215.166991 85.8203125,215.411133 L79.9609375,215.411133 C79.9609375,216.055667 80.1538067,216.609861 80.5395508,217.07373 C80.9252949,217.5376 81.4550748,217.769531 82.1289062,217.769531 C82.5976586,217.769531 83.0102521,217.654786 83.3666992,217.425293 C83.7231463,217.1958 83.9941397,216.900392 84.1796875,216.539062 L85.7324219,217.066406 C85.458983,217.691409 85.0146515,218.213865 84.3994141,218.633789 C83.7841766,219.053713 83.0175827,219.263672 82.0996094,219.263672 C80.9179628,219.263672 79.953617,218.85352 79.206543,218.033203 C78.4594689,217.212887 78.0859375,216.114265 78.0859375,214.737305 Z M79.9902344,214.107422 L83.9746094,214.107422 C83.9746094,213.462887 83.8037126,212.913576 83.4619141,212.459473 C83.1201155,212.005369 82.6416046,211.77832 82.0263672,211.77832 C81.4111297,211.77832 80.920412,212.010252 80.5541992,212.474121 C80.1879865,212.937991 80,213.482419 79.9902344,214.107422 Z M86.8896484,214.78125 C86.8896484,213.423821 87.2534143,212.334965 87.980957,211.514648 C88.7084997,210.694332 89.6484317,210.28418 90.8007812,210.28418 C91.6406292,210.28418 92.3486299,210.538083 92.9248047,211.045898 C93.5009794,211.553713 93.862304,212.134762 94.0087891,212.789062 L92.4267578,213.228516 C92.3095697,212.85742 92.1093764,212.537599 91.8261719,212.269043 C91.5429673,212.000487 91.2060566,211.866211 90.8154297,211.866211 C90.1806609,211.866211 89.6850604,212.144528 89.3286133,212.701172 C88.9721662,213.257815 88.7939453,213.951168 88.7939453,214.78125 C88.7939453,215.699223 88.9843731,216.412107 89.3652344,216.919922 C89.7460957,217.427737 90.2294893,217.681641 90.8154297,217.681641 C91.2451193,217.681641 91.6235335,217.532716 91.9506836,217.234863 C92.2778337,216.93701 92.5048822,216.597658 92.6318359,216.216797 L94.2138672,216.670898 C94.0283194,217.354496 93.62305,217.957517 92.9980469,218.47998 C92.3730437,219.002444 91.6406292,219.263672 90.8007812,219.263672 C89.6484317,219.263672 88.7084997,218.855961 87.980957,218.040527 C87.2534143,217.225094 86.8896484,216.138679 86.8896484,214.78125 Z M94.7558594,212.129883 L94.7558594,210.547852 L96.0595703,210.547852 L96.0595703,208.042969 L97.9052734,208.042969 L97.9052734,210.547852 L99.8388672,210.547852 L99.8388672,212.129883 L97.9052734,212.129883 L97.9052734,216.290039 C97.9052734,216.690432 97.985839,216.978515 98.1469727,217.154297 C98.3081063,217.330079 98.5546858,217.417969 98.8867188,217.417969 L99.8535156,217.417969 L99.8535156,219 L98.6523438,219 C96.9238195,219 96.0595703,218.140634 96.0595703,216.421875 L96.0595703,212.129883 L94.7558594,212.129883 Z M104.570312,213.199219 C104.570312,211.343741 105.048823,209.871587 106.005859,208.782715 C106.962895,207.693842 108.198235,207.149414 109.711914,207.149414 C110.688481,207.149414 111.525875,207.417966 112.224121,207.955078 C112.922367,208.49219 113.442381,209.156246 113.78418,209.947266 L112.128906,210.489258 C111.503903,209.366205 110.688482,208.804688 109.682617,208.804688 C108.725581,208.804688 107.966311,209.202633 107.404785,209.998535 C106.843259,210.794438 106.5625,211.861321 106.5625,213.199219 C106.5625,214.556647 106.8457,215.630855 107.412109,216.421875 C107.978518,217.212895 108.735347,217.608398 109.682617,217.608398 C110.297855,217.608398 110.842283,217.422853 111.315918,217.051758 C111.789553,216.680662 112.133788,216.226565 112.348633,215.689453 L114.077148,216.231445 C113.930663,216.58301 113.742677,216.922362 113.513184,217.249512 C113.28369,217.576662 112.995607,217.898924 112.648926,218.216309 C112.302244,218.533693 111.875003,218.787597 111.367188,218.978027 C110.859372,219.168458 110.30762,219.263672 109.711914,219.263672 C108.227532,219.263672 106.999517,218.724126 106.027832,217.64502 C105.056147,216.565913 104.570312,215.083994 104.570312,213.199219 Z M116.831055,214.78125 C116.831055,215.757817 117.031248,216.485349 117.431641,216.963867 C117.832033,217.442385 118.300779,217.681641 118.837891,217.681641 C119.365237,217.681641 119.8291,217.442385 120.229492,216.963867 C120.629885,216.485349 120.830078,215.757817 120.830078,214.78125 C120.830078,213.785151 120.629885,213.050295 120.229492,212.57666 C119.8291,212.103025 119.365237,211.866211 118.837891,211.866211 C118.310544,211.866211 117.84424,212.103025 117.438965,212.57666 C117.033689,213.050295 116.831055,213.785151 116.831055,214.78125 Z M114.926758,214.78125 C114.926758,213.521478 115.258786,212.457036 115.922852,211.587891 C116.586917,210.718746 117.558587,210.28418 118.837891,210.28418 C120.107428,210.28418 121.074215,210.718746 121.738281,211.587891 C122.402347,212.457036 122.734375,213.521478 122.734375,214.78125 C122.734375,215.171877 122.697754,215.562498 122.624512,215.953125 C122.551269,216.343752 122.421876,216.741697 122.236328,217.146973 C122.05078,217.552248 121.816408,217.90869 121.533203,218.216309 C121.249999,218.523927 120.876467,218.77539 120.412598,218.970703 C119.948728,219.166017 119.423831,219.263672 118.837891,219.263672 C118.261716,219.263672 117.741702,219.168458 117.277832,218.978027 C116.813963,218.787597 116.43799,218.543459 116.149902,218.245605 C115.861815,217.947752 115.62256,217.596193 115.432129,217.190918 C115.241698,216.785643 115.109864,216.385256 115.036621,215.989746 C114.963379,215.594236 114.926758,215.191408 114.926758,214.78125 Z M124.418945,219 L124.418945,207.032227 L126.264648,207.032227 L126.264648,219 L124.418945,219 Z M129.853516,214.78125 C129.853516,215.757817 130.053709,216.485349 130.454102,216.963867 C130.854494,217.442385 131.32324,217.681641 131.860352,217.681641 C132.387698,217.681641 132.85156,217.442385 133.251953,216.963867 C133.652346,216.485349 133.852539,215.757817 133.852539,214.78125 C133.852539,213.785151 133.652346,213.050295 133.251953,212.57666 C132.85156,212.103025 132.387698,211.866211 131.860352,211.866211 C131.333005,211.866211 130.866701,212.103025 130.461426,212.57666 C130.05615,213.050295 129.853516,213.785151 129.853516,214.78125 Z M127.949219,214.78125 C127.949219,213.521478 128.281247,212.457036 128.945312,211.587891 C129.609378,210.718746 130.581048,210.28418 131.860352,210.28418 C133.129889,210.28418 134.096676,210.718746 134.760742,211.587891 C135.424808,212.457036 135.756836,213.521478 135.756836,214.78125 C135.756836,215.171877 135.720215,215.562498 135.646973,215.953125 C135.57373,216.343752 135.444337,216.741697 135.258789,217.146973 C135.073241,217.552248 134.838869,217.90869 134.555664,218.216309 C134.27246,218.523927 133.898928,218.77539 133.435059,218.970703 C132.971189,219.166017 132.446292,219.263672 131.860352,219.263672 C131.284177,219.263672 130.764162,219.168458 130.300293,218.978027 C129.836423,218.787597 129.460451,218.543459 129.172363,218.245605 C128.884276,217.947752 128.64502,217.596193 128.45459,217.190918 C128.264159,216.785643 128.132325,216.385256 128.059082,215.989746 C127.985839,215.594236 127.949219,215.191408 127.949219,214.78125 Z M137.177734,215.938477 L137.177734,210.547852 L139.038086,210.547852 L139.038086,215.704102 C139.038086,217.022468 139.501948,217.681641 140.429688,217.681641 C140.986331,217.681641 141.420897,217.444827 141.733398,216.971191 C142.0459,216.497556 142.202148,215.933597 142.202148,215.279297 L142.202148,210.547852 L144.047852,210.547852 L144.047852,219 L142.260742,219 L142.260742,218.018555 L142.246094,218.018555 C142.109374,218.321291 141.848146,218.604491 141.462402,218.868164 C141.076658,219.131837 140.595706,219.263672 140.019531,219.263672 C139.677734,219.263672 139.353029,219.212403 139.04541,219.109863 C138.737791,219.007324 138.437501,218.84131 138.144531,218.611816 C137.851561,218.382323 137.617188,218.038088 137.441406,217.579102 C137.265624,217.120115 137.177734,216.573245 137.177734,215.938477 Z M146.069336,219 L146.069336,210.547852 L147.856445,210.547852 L147.856445,211.456055 C148.041993,211.143553 148.308104,210.870118 148.654785,210.635742 C149.001467,210.401366 149.41406,210.28418 149.892578,210.28418 C150.341799,210.28418 150.708006,210.347656 150.991211,210.474609 L150.991211,212.15918 C150.620115,212.041992 150.253908,211.983398 149.892578,211.983398 C149.257809,211.983398 148.771974,212.229978 148.435059,212.723145 C148.098143,213.216311 147.929688,213.873043 147.929688,214.693359 L147.929688,219 L146.069336,219 Z M151.328125,217.242188 L152.661133,216.46582 C153.247073,217.3252 154.008784,217.754883 154.946289,217.754883 C155.405276,217.754883 155.769042,217.664552 156.037598,217.483887 C156.306154,217.303222 156.44043,217.061525 156.44043,216.758789 C156.44043,216.514647 156.330568,216.299806 156.11084,216.114258 C155.891112,215.92871 155.659181,215.789551 155.415039,215.696777 C155.170897,215.604003 154.80469,215.479493 154.316406,215.323242 C154.228515,215.293945 154.165039,215.274414 154.125977,215.264648 C153.774412,215.14746 153.479005,215.032715 153.239746,214.92041 C153.000487,214.808105 152.749025,214.656739 152.485352,214.466309 C152.221678,214.275878 152.021485,214.036623 151.884766,213.748535 C151.748046,213.460448 151.679688,213.125978 151.679688,212.745117 C151.679688,212.002926 151.992184,211.407229 152.617188,210.958008 C153.242191,210.508787 154.01855,210.28418 154.946289,210.28418 C155.639652,210.28418 156.293942,210.467283 156.90918,210.833496 C157.524417,211.199709 157.983397,211.666013 158.286133,212.232422 L157.055664,212.979492 C156.479489,212.188473 155.781254,211.792969 154.960938,211.792969 C154.511717,211.792969 154.167482,211.8833 153.928223,212.063965 C153.688964,212.24463 153.569336,212.481444 153.569336,212.774414 C153.569336,213.018556 153.674315,213.235839 153.884277,213.42627 C154.094239,213.6167 154.311522,213.755859 154.536133,213.84375 C154.760743,213.931641 155.078123,214.043945 155.488281,214.180664 C155.595704,214.209961 155.673828,214.234375 155.722656,214.253906 C157.460946,214.81055 158.330078,215.650385 158.330078,216.773438 C158.330078,217.4668 158.039554,218.055173 157.458496,218.538574 C156.877439,219.021975 156.054693,219.263672 154.990234,219.263672 C154.169918,219.263672 153.439945,219.08301 152.800293,218.72168 C152.160641,218.36035 151.669924,217.867191 151.328125,217.242188 Z" id="SelectColours" fill="#545454" fill-rule="nonzero"></path>
                <g id="color-wheel" transform="translate(57.000000, 72.000000)" fill-rule="nonzero">
                    <path d="M50,0 L44.140625,9.71679688 L50,17.7734375 L72.7769531,27.2230469 L83.9660156,21.8933594 L85.2007813,14.7992188 C76.1826172,5.78066406 63.7314453,0 50,0 Z" id="Path" fill="#FF4B00"></path>
                    <path d="M85.2009766,14.7990234 L72.7769531,27.2230469 L82.2265625,50 L91.5650391,55.859375 L100,50 C100,36.2685547 94.2193359,23.8173828 85.2009766,14.7990234 Z" id="Path" fill="#FF9F00"></path>
                    <path d="M82.2265625,50 L72.7769531,72.7769531 L73.3458984,85.0646484 L85.2009766,85.2009766 C94.2193359,76.1826172 100,63.7314453 100,50 L82.2265625,50 Z" id="Path" fill="#66BB00"></path>
                    <path d="M72.7769531,72.7769531 L50,82.2265625 L44.140625,91.93125 L50,100 C63.7314453,100 76.1826172,94.2193359 85.2009766,85.2009766 L72.7769531,72.7769531 Z" id="Path" fill="#00CC71"></path>
                    <path d="M27.2230469,72.7769531 L15.6677734,72.6134766 L14.7990234,85.2009766 C23.8173828,94.2193359 36.2685547,100 50,100 L50,82.2265625 L27.2230469,72.7769531 Z" id="Path" fill="#0095FF"></path>
                    <path d="M17.7734375,50 L9.16738281,44.140625 L0,50 C0,63.7314453 5.78066406,76.1826172 14.7990234,85.2009766 L27.2230469,72.7769531 L17.7734375,50 Z" id="Path" fill="#6B77E8"></path>
                    <path d="M22.2599609,16.4001953 L14.7992188,14.7990234 C5.78066406,23.8173828 0,36.2685547 0,50 L17.7734375,50 L27.2230469,27.2230469 L22.2599609,16.4001953 Z" id="Path" fill="#B760EA"></path>
                    <path d="M50,17.7734375 L50,0 C36.2685547,0 23.8173828,5.78066406 14.7990234,14.7990234 L27.2230469,27.2230469 C33.0583984,21.3876953 41.1150391,17.7734375 50,17.7734375 Z" id="Path" fill="#FF193D"></path>
                    <path d="M50,17.7734375 L44.140625,26.5625 L50,35.3515625 L60.3529297,39.6470703 L71.9726562,33.8867188 L72.7769531,27.2230469 C66.9416016,21.3876953 58.8849609,17.7734375 50,17.7734375 Z" id="Path" fill="#FF7816"></path>
                    <path d="M72.7769531,27.2230469 L60.3529297,39.6470703 L64.6484375,50 L72.7769531,55.859375 L82.2265625,50 C82.2265625,41.1150391 78.6123047,33.0583984 72.7769531,27.2230469 Z" id="Path" fill="#FDBF00"></path>
                    <path d="M64.6484375,50 L60.3529297,60.3529297 L61.7408203,67.6001953 L72.7769531,72.7769531 C78.6123047,66.9416016 82.2265625,58.8849609 82.2265625,50 L64.6484375,50 Z" id="Path" fill="#77DD00"></path>
                    <path d="M60.3529297,60.3529297 L50,64.6484375 L44.140625,73.8037109 L50,82.2265625 C58.8849609,82.2265625 66.9416016,78.6123047 72.7769531,72.7769531 L60.3529297,60.3529297 Z" id="Path" fill="#00DD7B"></path>
                    <path d="M39.6470703,60.3529297 L27.1730469,61.1082031 L27.2230469,72.7769531 C33.0583984,78.6123047 41.1150391,82.2265625 50,82.2265625 L50,64.6484375 L39.6470703,60.3529297 Z" id="Path" fill="#3AAAFF"></path>
                    <path d="M35.3515625,50 L27.1730469,44.140625 L17.7734375,50 C17.7734375,58.8849609 21.3876953,66.9416016 27.2230469,72.7769531 L39.6470703,60.3529297 L35.3515625,50 Z" id="Path" fill="#7984EB"></path>
                    <path d="M39.0136719,27.2949219 L27.2230469,27.2230469 C21.3876953,33.0583984 17.7734375,41.1150391 17.7734375,50 L35.3515625,50 L39.6470703,39.6470703 L39.0136719,27.2949219 Z" id="Path" fill="#CB75F6"></path>
                    <path d="M27.2230469,27.2230469 L39.6470703,39.6470703 L50,35.3515625 L50,17.7734375 C41.1150391,17.7734375 33.0583984,21.3876953 27.2230469,27.2230469 Z" id="Path" fill="#FF4949"></path>
                    <path d="M60.3529297,39.6470703 C57.7003906,36.9945313 54.0382812,35.3515625 50,35.3515625 L44.140625,41.1193359 L50,50 L61.0359375,44.8234375 L60.3529297,39.6470703 Z" id="Path" fill="#FF9F00"></path>
                    <path d="M64.6484375,50 C64.6484375,45.9617188 63.0054688,42.2996094 60.3529297,39.6470703 L50,50 L59.3382813,55.859375 L64.6484375,50 Z" id="Path" fill="#FFD400"></path>
                    <path d="M60.3529297,60.3529297 C63.0054688,57.7003906 64.6484375,54.0382812 64.6484375,50 L50,50 L55.1765625,61.0359375 L60.3529297,60.3529297 Z" id="Path" fill="#89F900"></path>
                    <path d="M50,50 L44.140625,58.2396484 L50,64.6484375 C54.0382813,64.6484375 57.7003906,63.0054688 60.3529297,60.3529297 L50,50 Z" id="Path" fill="#00EE84"></path>
                    <path d="M50,50 L41.2109375,52.9296875 L39.6470703,60.3529297 C42.2996094,63.0054688 45.9617188,64.6484375 50,64.6484375 L50,50 Z" id="Path" fill="#73BCFF"></path>
                    <path d="M35.3515625,50 C35.3515625,54.0382813 36.9945313,57.7003906 39.6470703,60.3529297 L50,50 L41.3941406,47.0703125 L35.3515625,50 Z" id="Path" fill="#979FEF"></path>
                    <path d="M39.6470703,39.6470703 C36.9945313,42.2996094 35.3515625,45.9617188 35.3515625,50 L50,50 L47.0703125,41.2109375 L39.6470703,39.6470703 Z" id="Path" fill="#DA90F8"></path>
                    <path d="M50,35.3515625 C45.9617188,35.3515625 42.2996094,36.9945313 39.6470703,39.6470703 L50,50 L50,35.3515625 Z" id="Path" fill="#FF6C6C"></path>
                </g>
            </g>
        </g>
    </g>
</svg>