<?xml version="1.0" encoding="UTF-8"?>
<svg width="320px" height="130px" viewBox="0 0 320 130" version="1.1" xmlns="http://www.w3.org/2000/svg" xmlns:xlink="http://www.w3.org/1999/xlink">
    <!-- Generator: Sketch 55.2 (78181) - https://sketchapp.com -->
    <title>Group 3</title>
    <desc>Created with Sketch.</desc>
    <defs>
        <rect id="path-1" x="0" y="0" width="270" height="80" rx="15"></rect>
        <filter x="-15.7%" y="-40.6%" width="131.5%" height="206.2%" filterUnits="objectBoundingBox" id="filter-2">
            <feOffset dx="0" dy="10" in="SourceAlpha" result="shadowOffsetOuter1"></feOffset>
            <feGaussianBlur stdDeviation="12.5" in="shadowOffsetOuter1" result="shadowBlurOuter1"></feGaussianBlur>
            <feComposite in="shadowBlurOuter1" in2="SourceAlpha" operator="out" result="shadowBlurOuter1"></feComposite>
            <feColorMatrix values="0 0 0 0 0   0 0 0 0 0   0 0 0 0 0  0 0 0 0.1 0" type="matrix" in="shadowBlurOuter1"></feColorMatrix>
        </filter>
    </defs>
    <g id="Disha-Website" stroke="none" stroke-width="1" fill="none" fill-rule="evenodd">
        <g id="Artboard" transform="translate(-642.000000, -816.000000)">
            <g id="Group-3" transform="translate(667.000000, 831.000000)">
                <g id="Rectangle">
                    <use fill="black" fill-opacity="1" filter="url(#filter-2)" xlink:href="#path-1"></use>
                    <rect stroke-linejoin="square" fill="#FFFFFF" fill-rule="evenodd" x="0" y="0" width="270" height="80" rx="15"></rect>
                </g>
                <g id="move" transform="translate(39.000000, 29.000000)" stroke="#000000" stroke-width="1.875">
                    <path d="M3.75,8.5 L0,12.25 L3.75,16 M8.5,3.75 L12.25,0 L16,3.75 M16,20.875 L12.25,24.625 L8.5,20.875 M20.875,8.5 L24.625,12.25 L20.875,16 M1.375,12.25 L23.125,12.25 M12.25,1.25 L12.25,23.25" id="Shape"></path>
                </g>
                <g id="edit-2" transform="translate(129.000000, 29.000000)" stroke="#000000" stroke-width="1.875">
                    <polygon id="Path" points="16.25 0 22.5 6.25 6.25 22.5 0 22.5 0 16.25"></polygon>
                </g>
                <g id="trash" transform="translate(216.000000, 29.000000)" stroke="#000000" stroke-width="1.875">
                    <polyline id="Path" points="0 5 2.5 5 22.5 5"></polyline>
                    <path d="M20,5 L20,22.5 C20,23.8807119 18.8807119,25 17.5,25 L5,25 C3.61928813,25 2.5,23.8807119 2.5,22.5 L2.5,5 M6.25,5 L6.25,2.5 C6.25,1.11928813 7.36928813,0 8.75,0 L13.75,0 C15.1307119,0 16.25,1.11928813 16.25,2.5 L16.25,5" id="Shape"></path>
                    <path d="M8.75,11.25 L8.75,18.75" id="Path"></path>
                    <path d="M13.75,11.25 L13.75,18.75" id="Path"></path>
                </g>
            </g>
        </g>
    </g>
</svg>