<?xml version="1.0" encoding="UTF-8"?>
<svg width="264px" height="303px" viewBox="0 0 264 303" version="1.1" xmlns="http://www.w3.org/2000/svg" xmlns:xlink="http://www.w3.org/1999/xlink">
    <!-- Generator: Sketch 55.2 (78181) - https://sketchapp.com -->
    <title>Group 5</title>
    <desc>Created with Sketch.</desc>
    <defs>
        <rect id="path-1" x="0" y="0" width="214" height="253" rx="30"></rect>
        <filter x="-19.9%" y="-12.8%" width="139.7%" height="133.6%" filterUnits="objectBoundingBox" id="filter-2">
            <feOffset dx="0" dy="10" in="SourceAlpha" result="shadowOffsetOuter1"></feOffset>
            <feGaussianBlur stdDeviation="12.5" in="shadowOffsetOuter1" result="shadowBlurOuter1"></feGaussianBlur>
            <feComposite in="shadowBlurOuter1" in2="SourceAlpha" operator="out" result="shadowBlurOuter1"></feComposite>
            <feColorMatrix values="0 0 0 0 0   0 0 0 0 0   0 0 0 0 0  0 0 0 0.1 0" type="matrix" in="shadowBlurOuter1"></feColorMatrix>
        </filter>
    </defs>
    <g id="Disha-Website" stroke="none" stroke-width="1" fill="none" fill-rule="evenodd">
        <g id="Artboard" transform="translate(-670.000000, -920.000000)">
            <g id="Group-5" transform="translate(695.000000, 935.000000)">
                <g id="Rectangle">
                    <use fill="black" fill-opacity="1" filter="url(#filter-2)" xlink:href="#path-1"></use>
                    <rect stroke-linejoin="square" fill="#FFFFFF" fill-rule="evenodd" x="0" y="0" width="214" height="253" rx="30"></rect>
                </g>
                <g id="Group-4" transform="translate(71.000000, 30.000000)">
                    <circle id="Oval" fill="#F0F0F0" cx="36.5" cy="36.5" r="36.5"></circle>
                    <g id="eye" transform="translate(23.000000, 27.000000)" stroke="#000000" stroke-width="1.875">
                        <path d="M0,10 C0,10 5,0 13.75,0 C22.5,0 27.5,10 27.5,10 C27.5,10 22.5,20 13.75,20 C5,20 0,10 0,10 Z" id="Path"></path>
                        <circle id="Oval" cx="13.75" cy="10" r="3.75"></circle>
                    </g>
                </g>
                <path d="M66.5703125,167.96875 L71.2285156,166.254883 C72.6054756,169.448258 74.8320159,171.044922 77.9082031,171.044922 C79.5781333,171.044922 80.9843693,170.524908 82.1269531,169.484863 C83.269537,168.444819 83.8408203,166.972666 83.8408203,165.068359 C83.8408203,163.339835 83.2109438,161.933599 81.9511719,160.849609 C80.6914,159.76562 79.0947362,159.223633 77.1611328,159.223633 C76.10644,159.223633 75.0517631,159.282226 73.9970703,159.399414 L73.9970703,154.65332 C74.7587929,154.711914 75.7548767,154.741211 76.9853516,154.741211 C78.5380937,154.741211 79.863764,154.257817 80.9624023,153.291016 C82.0610406,152.324214 82.6103516,150.991219 82.6103516,149.291992 C82.6103516,147.797844 82.1416062,146.574712 81.2041016,145.622559 C80.2665969,144.670405 79.0800853,144.194336 77.6445312,144.194336 C75.1249874,144.194336 73.2793027,145.864241 72.1074219,149.204102 L67.3613281,147.709961 C67.9765656,145.278308 69.2143462,143.293465 71.074707,141.755371 C72.9350679,140.217277 75.2421737,139.448242 77.9960938,139.448242 C81.2187661,139.448242 83.782217,140.319816 85.6865234,142.062988 C87.5908298,143.806161 88.5429688,146.025377 88.5429688,148.720703 C88.5429688,150.507821 88.0815476,152.104485 87.1586914,153.510742 C86.2358352,154.916999 85.1005927,155.971676 83.7529297,156.674805 C85.3642659,157.231448 86.777826,158.220208 87.9936523,159.641113 C89.2094787,161.062019 89.8173828,162.871083 89.8173828,165.068359 C89.8173828,168.437517 88.7407334,171.066885 86.5874023,172.956543 C84.4340713,174.846201 81.5556821,175.791016 77.9521484,175.791016 C75.0517433,175.791016 72.5981546,175.029304 70.5913086,173.505859 C68.5844626,171.982414 67.244144,170.13673 66.5703125,167.96875 Z M93.640625,145.161133 L93.640625,140.239258 L115.701172,140.239258 L115.701172,144.150391 C110.222629,152.880903 106.135756,163.266541 103.44043,175.307617 L97.4638672,175.307617 C99.4267676,165.141551 103.26462,155.092823 108.977539,145.161133 L93.640625,145.161133 Z M121.897461,175 L121.897461,140.239258 L127.698242,140.239258 L127.698242,155.97168 L127.786133,155.97168 L141.277344,140.239258 L148.616211,140.239258 L135.168945,155.444336 L148.967773,175 L141.980469,175 L131.521484,159.53125 L127.698242,163.881836 L127.698242,175 L121.897461,175 Z" id="37K" fill="#000000" fill-rule="nonzero"></path>
                <path d="M67.3979492,218 L67.3979492,206.413086 L71.9243164,206.413086 C73.13526,206.413086 74.0800747,206.73779 74.7587891,207.387207 C75.4375034,208.036624 75.7768555,208.893549 75.7768555,209.958008 C75.7768555,211.051763 75.4277379,211.916012 74.7294922,212.550781 C74.0312465,213.18555 73.1059628,213.50293 71.9536133,213.50293 L69.331543,213.50293 L69.331543,218 L67.3979492,218 Z M69.331543,211.862305 L71.6899414,211.862305 C72.3540072,211.862305 72.8715802,211.701173 73.2426758,211.378906 C73.6137714,211.056639 73.7993164,210.583011 73.7993164,209.958008 C73.7993164,209.34277 73.6186542,208.874025 73.2573242,208.551758 C72.8959943,208.229491 72.3686558,208.068359 71.675293,208.068359 L69.331543,208.068359 L69.331543,211.862305 Z M78.0180664,215.626953 C78.0180664,215.939455 78.1425769,216.200683 78.3916016,216.410645 C78.6406262,216.620607 78.9702128,216.725586 79.3803711,216.725586 C79.9663115,216.725586 80.4667948,216.530275 80.8818359,216.139648 C81.2968771,215.749021 81.5043945,215.236331 81.5043945,214.601562 L81.5043945,213.825195 C81.0551735,213.932618 80.5131868,214.035156 79.878418,214.132812 C78.6381774,214.328126 78.0180664,214.826168 78.0180664,215.626953 Z M76.1430664,215.788086 C76.1430664,214.196281 77.3246952,213.224611 79.6879883,212.873047 C80.5473676,212.746093 81.1528303,212.628907 81.5043945,212.521484 L81.5043945,212.067383 C81.5043945,211.657225 81.3579116,211.334962 81.0649414,211.100586 C80.7719712,210.86621 80.3813501,210.749023 79.8930664,210.749023 C78.9653274,210.749023 78.1645542,211.129879 77.4907227,211.891602 L76.362793,210.924805 C76.8022483,210.407224 77.3271454,210.004396 77.9375,209.716309 C78.5478546,209.428221 79.189938,209.28418 79.8637695,209.28418 C81.1235415,209.28418 82.02197,209.589352 82.559082,210.199707 C83.0961941,210.810062 83.3647461,211.662104 83.3647461,212.755859 L83.3647461,218 L81.5629883,218 L81.5629883,216.945312 C81.3872062,217.306642 81.0820334,217.616698 80.6474609,217.875488 C80.2128885,218.134279 79.7026396,218.263672 79.1166992,218.263672 C78.1889602,218.263672 77.4614284,218.034182 76.934082,217.575195 C76.4067356,217.116209 76.1430664,216.520511 76.1430664,215.788086 Z M86.7192383,213.620117 C86.7192383,214.479496 86.8876936,215.148435 87.2246094,215.626953 C87.5615251,216.105471 88.008298,216.344727 88.5649414,216.344727 C89.1118191,216.344727 89.5512679,216.110354 89.8833008,215.641602 C90.2153337,215.172849 90.3813477,214.494145 90.3813477,213.605469 C90.3813477,212.736324 90.2153337,212.062502 89.8833008,211.583984 C89.5512679,211.105466 89.1167019,210.866211 88.5795898,210.866211 C88.0131808,210.866211 87.5615251,211.115232 87.2246094,211.613281 C86.8876936,212.111331 86.7192383,212.780269 86.7192383,213.620117 Z M84.8295898,213.634766 C84.8295898,212.3164 85.156735,211.261723 85.8110352,210.470703 C86.4653353,209.679684 87.3051707,209.28418 88.3305664,209.28418 C88.8481471,209.28418 89.2851545,209.413573 89.6416016,209.672363 C89.9980487,209.931154 90.249511,210.216795 90.3959961,210.529297 L90.3959961,209.547852 L92.2416992,209.547852 L92.2416992,216.828125 C92.2416992,218.41993 91.9316437,219.599117 91.3115234,220.365723 C90.6914031,221.132328 89.7368229,221.515625 88.4477539,221.515625 C87.0317312,221.515625 85.9331094,220.968755 85.1518555,219.875 L86.3823242,219.025391 C86.9487333,219.689456 87.6469685,220.021484 88.4770508,220.021484 C89.0141628,220.021484 89.4584943,219.816408 89.8100586,219.40625 C90.1616229,218.996092 90.3520506,218.458988 90.3813477,217.794922 C90.400879,217.404295 90.4106445,217.082033 90.4106445,216.828125 C90.2250967,217.140627 89.9467792,217.401854 89.5756836,217.611816 C89.204588,217.821778 88.8090841,217.926758 88.3891602,217.926758 C87.3247017,217.926758 86.4653353,217.533695 85.8110352,216.747559 C85.156735,215.961422 84.8295898,214.923835 84.8295898,213.634766 Z M93.7504883,213.737305 C93.7504883,212.379876 94.1240197,211.298344 94.8710938,210.492676 C95.6181678,209.687008 96.5580998,209.28418 97.690918,209.28418 C98.8042048,209.28418 99.7221644,209.689449 100.444824,210.5 C101.167484,211.310551 101.528809,212.365228 101.528809,213.664062 C101.528809,213.91797 101.51416,214.166991 101.484863,214.411133 L95.6254883,214.411133 C95.6254883,215.055667 95.8183574,215.609861 96.2041016,216.07373 C96.5898457,216.5376 97.1196255,216.769531 97.793457,216.769531 C98.2622094,216.769531 98.6748029,216.654786 99.03125,216.425293 C99.3876971,216.1958 99.6586905,215.900392 99.8442383,215.539062 L101.396973,216.066406 C101.123534,216.691409 100.679202,217.213865 100.063965,217.633789 C99.4487274,218.053713 98.6821335,218.263672 97.7641602,218.263672 C96.5825136,218.263672 95.6181678,217.85352 94.8710938,217.033203 C94.1240197,216.212887 93.7504883,215.114265 93.7504883,213.737305 Z M95.6547852,213.107422 L99.6391602,213.107422 C99.6391602,212.462887 99.4682634,211.913576 99.1264648,211.459473 C98.7846663,211.005369 98.3061554,210.77832 97.690918,210.77832 C97.0756805,210.77832 96.5849628,211.010252 96.21875,211.474121 C95.8525372,211.937991 95.6645508,212.482419 95.6547852,213.107422 Z M105.703613,206.413086 L107.79834,206.413086 L109.746582,213.107422 C110.195803,214.845712 110.444824,215.802733 110.493652,215.978516 L110.552246,215.993164 C110.786622,215.094722 111.035643,214.132818 111.299316,213.107422 L113.247559,206.413086 L115.342285,206.413086 L111.606934,218 L109.438965,218 L105.703613,206.413086 Z M116.455566,208.288086 L116.455566,206.251953 L118.447754,206.251953 L118.447754,208.288086 L116.455566,208.288086 Z M116.543457,218 L116.543457,209.547852 L118.374512,209.547852 L118.374512,218 L116.543457,218 Z M120.088379,213.737305 C120.088379,212.379876 120.46191,211.298344 121.208984,210.492676 C121.956058,209.687008 122.89599,209.28418 124.028809,209.28418 C125.142095,209.28418 126.060055,209.689449 126.782715,210.5 C127.505375,211.310551 127.866699,212.365228 127.866699,213.664062 C127.866699,213.91797 127.852051,214.166991 127.822754,214.411133 L121.963379,214.411133 C121.963379,215.055667 122.156248,215.609861 122.541992,216.07373 C122.927736,216.5376 123.457516,216.769531 124.131348,216.769531 C124.6001,216.769531 125.012694,216.654786 125.369141,216.425293 C125.725588,216.1958 125.996581,215.900392 126.182129,215.539062 L127.734863,216.066406 C127.461424,216.691409 127.017093,217.213865 126.401855,217.633789 C125.786618,218.053713 125.020024,218.263672 124.102051,218.263672 C122.920404,218.263672 121.956058,217.85352 121.208984,217.033203 C120.46191,216.212887 120.088379,215.114265 120.088379,213.737305 Z M121.992676,213.107422 L125.977051,213.107422 C125.977051,212.462887 125.806154,211.913576 125.464355,211.459473 C125.122557,211.005369 124.644046,210.77832 124.028809,210.77832 C123.413571,210.77832 122.922853,211.010252 122.556641,211.474121 C122.190428,211.937991 122.002441,212.482419 121.992676,213.107422 Z M128.555176,209.547852 L130.547363,209.547852 L131.42627,213.795898 C131.484864,214.127931 131.631346,214.928705 131.865723,216.198242 L131.924316,216.198242 C131.973145,215.924803 132.05371,215.504886 132.166016,214.938477 C132.278321,214.372067 132.354004,213.991212 132.393066,213.795898 L133.286621,209.547852 L135.234863,209.547852 L136.143066,213.825195 C136.182129,214.049806 136.257812,214.430661 136.370117,214.967773 C136.482422,215.504885 136.562988,215.915038 136.611816,216.198242 L136.67041,216.198242 C136.719239,215.924803 136.799804,215.485355 136.912109,214.879883 C137.024415,214.274411 137.090332,213.913087 137.109863,213.795898 L137.974121,209.547852 L139.966309,209.547852 L137.681152,218 L135.615723,218 L134.722168,213.883789 C134.595214,213.258786 134.453614,212.482427 134.297363,211.554688 L134.23877,211.554688 C134.189941,211.857423 134.111817,212.287107 134.004395,212.84375 C133.896972,213.400393 133.828613,213.74707 133.799316,213.883789 L132.905762,218 L130.840332,218 L128.555176,209.547852 Z M140.464355,216.242188 L141.797363,215.46582 C142.383304,216.3252 143.145015,216.754883 144.08252,216.754883 C144.541506,216.754883 144.905272,216.664552 145.173828,216.483887 C145.442384,216.303222 145.57666,216.061525 145.57666,215.758789 C145.57666,215.514647 145.466798,215.299806 145.24707,215.114258 C145.027343,214.92871 144.795411,214.789551 144.55127,214.696777 C144.307128,214.604003 143.94092,214.479493 143.452637,214.323242 C143.364746,214.293945 143.30127,214.274414 143.262207,214.264648 C142.910643,214.14746 142.615236,214.032715 142.375977,213.92041 C142.136718,213.808105 141.885255,213.656739 141.621582,213.466309 C141.357909,213.275878 141.157716,213.036623 141.020996,212.748535 C140.884277,212.460448 140.815918,212.125978 140.815918,211.745117 C140.815918,211.002926 141.128415,210.407229 141.753418,209.958008 C142.378421,209.508787 143.154781,209.28418 144.08252,209.28418 C144.775882,209.28418 145.430173,209.467283 146.04541,209.833496 C146.660648,210.199709 147.119627,210.666013 147.422363,211.232422 L146.191895,211.979492 C145.61572,211.188473 144.917485,210.792969 144.097168,210.792969 C143.647947,210.792969 143.303712,210.8833 143.064453,211.063965 C142.825194,211.24463 142.705566,211.481444 142.705566,211.774414 C142.705566,212.018556 142.810546,212.235839 143.020508,212.42627 C143.23047,212.6167 143.447753,212.755859 143.672363,212.84375 C143.896974,212.931641 144.214353,213.043945 144.624512,213.180664 C144.731934,213.209961 144.810058,213.234375 144.858887,213.253906 C146.597177,213.81055 147.466309,214.650385 147.466309,215.773438 C147.466309,216.4668 147.175784,217.055173 146.594727,217.538574 C146.013669,218.021975 145.190923,218.263672 144.126465,218.263672 C143.306148,218.263672 142.576175,218.08301 141.936523,217.72168 C141.296872,217.36035 140.806154,216.867191 140.464355,216.242188 Z" id="PageViews" fill-opacity="0.67" fill="#000000" fill-rule="nonzero"></path>
            </g>
        </g>
    </g>
</svg>